<svg height="36" viewBox="0 0 66 36" width="66" xmlns="http://www.w3.org/2000/svg"><path d="m63.153 9h-3.793v10.526l-7.18-9.887c-.277-.36-.717-.645-1.213-.645l-5.294.005v21.044h6.082v-10.5l7.167 9.877c.277.368.73.602 1.232.602h2.999c1.263 0 2.287-1.005 2.287-2.248v-16.527c0-1.242-1.024-2.247-2.287-2.247zm-34.217 10.542c0-2.483-2.056-4.503-4.584-4.503-2.526 0-4.58 2.02-4.58 4.503 0 2.484 2.054 4.503 4.582 4.503 2.526 0 4.582-2.019 4.582-4.503zm6.096-.008c0 5.794-4.779 10.489-10.674 10.489s-10.673-4.695-10.673-10.488 4.778-10.49 10.673-10.49 10.674 4.695 10.674 10.49zm1.518-17.284v3.728h6.082v-5.978h-3.802c-1.263 0-2.28 1.006-2.28 2.25v-.002zm0 27.774h6.082v-21.004h-6.082v21.002zm-28.18-21.004h3.793v15.024c.002 6.604-5.443 11.956-12.163 11.956v-5.977c3.354 0 6.083-2.681 6.083-5.978v-12.77c0-1.242 1.023-2.254 2.288-2.254z" fill="#0d2481"/></svg>